<svg xmlns="http://www.w3.org/2000/svg" viewBox="0 0 64 64"><defs><style>.cls-1{fill:#009ede;}.cls-2{fill:#0083ca;}.cls-3{fill:#fadf00;}.cls-4{fill:#ffc332;opacity:0.91;}.cls-5{fill:#fff;}</style></defs><g id="_2.sun" data-name="2.sun"><path class="cls-1" d="M42.55,31.61c-5-11.08-21.62-11.08-26.58,0C.86,30.52-.37,52.57,14.8,53.15H43.72C58.82,52.6,57.73,30.55,42.55,31.61Z"/><path class="cls-2" d="M52.8,36.41a11.29,11.29,0,0,0-2.25,0c-.2-.41-.42-.82-.65-1.21l-5.33-3.05H42l-1-1-.74-1.47L37.37,28A14.58,14.58,0,0,0,24,36.41C15.09,35.14,8.56,45.86,13.71,53.1c.36,0,.72,0,1.09,0H43.72C52.16,53.4,57.64,43.23,52.8,36.41Z"/><path class="cls-3" d="M42.55,31.61a10.81,10.81,0,0,1,9.36,3.63C57.75,21.9,39.45,11.73,31,23.33A14.56,14.56,0,0,1,42.55,31.61Z"/><path class="cls-4" d="M42.55,31.61A10.79,10.79,0,0,1,52,35.29c-.45-7.6-8.67-13-15.92-10.44A14.59,14.59,0,0,1,42.55,31.61Z"/><path class="cls-5" d="M32.3,26.4c-1.6-.73-9.19-.6-8.45,2.09a1,1,0,0,0,.89.55,10.25,10.25,0,0,1,7-.72A1,1,0,0,0,32.3,26.4Z"/><path class="cls-5" d="M21.4,29.24c-.91.62-1.14,2.11.23,2.23.56,0,.8-.42,1.19-.81A1,1,0,0,0,21.4,29.24Z"/><path class="cls-5" d="M17.93,35a7.93,7.93,0,0,0-9.29,2.11,1,1,0,1,0,1.52,1.29,5.92,5.92,0,0,1,4.52-2.09,6,6,0,0,1,2.43.52A1,1,0,0,0,17.93,35Z"/><path class="cls-5" d="M8.12,39.8c-1.57-.44-2,3.55-.37,3.46,1.25,0,.93-1.44,1.14-2.27A1,1,0,0,0,8.12,39.8Z"/><path d="M53.19,30c.09-11.86-15.69-16.7-22.25-6.85a14.63,14.63,0,0,0-15,8.34C.86,30.35-.36,52.57,14.8,53.15H43.72c9.13.2,14.33-11.25,8.26-18A12,12,0,0,0,53.19,30ZM41,19.76a10.24,10.24,0,0,1,9.47,14,10.69,10.69,0,0,0-7.91-2.27,14.6,14.6,0,0,0-9.45-7.94A10.25,10.25,0,0,1,41,19.76Zm2.73,31.39H14.8a8.9,8.9,0,0,1-8.89-8.89C5.89,32.65,19.33,30,23,38.84a1,1,0,1,0,1.84-.77A11,11,0,0,0,18,31.85c4.33-9,18.19-9,22.52,0a11,11,0,0,0-6.86,6.22,1,1,0,0,0,1.85.77c3.68-8.86,17.12-6.19,17.1,3.42A8.9,8.9,0,0,1,43.72,51.15Z"/><path class="cls-5" d="M41.22,22.81c1.43-.06,2.53.93,3.78,1.35a1,1,0,0,0,.6-1.81c-1.13-.77-4.82-2.73-5.32-.6A1,1,0,0,0,41.22,22.81Z"/><path class="cls-5" d="M38.06,21.46a7.56,7.56,0,0,0-1.12.61,1,1,0,0,0,.55,1.84c.82-.23,2.36-.84,1.89-1.95A1,1,0,0,0,38.06,21.46Z"/><path d="M41,16.8a1,1,0,0,0,1-1v-4a1,1,0,0,0-2,0v4A1,1,0,0,0,41,16.8Z"/><path d="M51.29,20.66a1,1,0,0,0,.7-.3l2.8-2.79a1,1,0,0,0-1.42-1.42L50.58,19A1,1,0,0,0,51.29,20.66Z"/><path d="M59.09,29h-4a1,1,0,0,0,0,2h4A1,1,0,0,0,59.09,29Z"/><path d="M30,20.36c.9.93,2.35-.51,1.42-1.41l-2.8-2.8c-.9-.93-2.34.51-1.41,1.42Z"/></g></svg>