<?xml version="1.0" encoding="UTF-8" standalone="no"?> <svg id="Layer_1" data-name="Layer 1" xmlns="http://www.w3.org/2000/svg" viewBox="0 0 64 64"><path d="M57,6H7a5.044,5.044,0,0,0-5,5.076V56.924A5.044,5.044,0,0,0,7,62H55l7-7V11.076A5.044,5.044,0,0,0,57,6Z" style="fill:#d8e0e6"/><polygon points="55 62 55 55 62 55 55 62" style="fill:#c0c7cc"/><path d="M7,6H57a5,5,0,0,1,5,5v6a0,0,0,0,1,0,0H2a0,0,0,0,1,0,0V11A5,5,0,0,1,7,6Z" style="fill:#4f73a6"/><rect x="6" y="38" width="52" height="2" style="fill:#c0c7cc"/><path d="M53.132,23.482c-.1,0-.2,0-.3.011a3.368,3.368,0,0,0-3.712-2.025,4.263,4.263,0,0,0-8.06,1.029,4.515,4.515,0,0,0-.659-.049,4.278,4.278,0,1,0,0,8.552H53.132a3.761,3.761,0,1,0,0-7.518Z" style="fill:#7cb2f8"/><path d="M53.132,54a3.761,3.761,0,1,0,0-7.518c-.1,0-.2,0-.3.011a3.368,3.368,0,0,0-3.712-2.025,4.263,4.263,0,0,0-8.06,1.029,4.515,4.515,0,0,0-.659-.049,4.278,4.278,0,1,0,0,8.552" style="fill:#7cb2f8"/><path d="M47.782,59.268l-1.928-.536.83-2.982H45a1,1,0,0,1-.919-1.394l1.818-4.25,1.838.788L46.516,53.75H48a1,1,0,0,1,.964,1.268Z" style="fill:#ffcb52"/><circle cx="14" cy="27" r="4" style="fill:#d98285"/><path d="M13.549,42.5a8.194,8.194,0,0,0-2.348.378A7.6,7.6,0,0,1,16.676,50.3,8.1,8.1,0,0,1,10.5,58.014a7.95,7.95,0,0,0,2.864.487A8.271,8.271,0,0,0,21.5,50.39,7.779,7.779,0,0,0,13.549,42.5Z" style="fill:#ffcb52"/><path d="M33.6,26.2l-4-3-1.2,1.6L30,26H24v2h6l-1.6,1.2,1.2,1.6,3.983-2.988,0,0,.014-.01,0,0a1,1,0,0,0,0-1.6Z" style="fill:#65788f"/><path d="M33.6,48.2l-4-3-1.2,1.6L30,48H24v2h6l-1.6,1.2,1.2,1.6,3.983-2.988,0,0,.014-.01,0,0a1,1,0,0,0,0-1.6Z" style="fill:#65788f"/><rect x="7" y="44" width="2" height="2" rx="1" style="fill:#4f73a6"/><rect x="10" y="47" width="2" height="2" rx="1" style="fill:#4f73a6"/><rect x="6" y="49" width="2" height="2" rx="1" style="fill:#4f73a6"/><path d="M17,12a2,2,0,0,1-2-2V6a2,2,0,0,1,4,0h2a4,4,0,0,0-8,0v4a4,4,0,0,0,8,0H19A2,2,0,0,1,17,12Z" style="fill:#414d5c"/><path d="M47,12a2,2,0,0,1-2-2V6a2,2,0,0,1,4,0h2a4,4,0,0,0-8,0v4a4,4,0,0,0,8,0H49A2,2,0,0,1,47,12Z" style="fill:#414d5c"/><rect x="38.617" y="33.44" width="3" height="1" transform="translate(-12.249 38.308) rotate(-45)" style="fill:#4f73a6"/><rect x="44.557" y="33.44" width="3" height="1" transform="translate(-10.509 42.508) rotate(-45)" style="fill:#4f73a6"/><rect x="50.557" y="33.44" width="3" height="1" transform="translate(-8.752 46.75) rotate(-45)" style="fill:#4f73a6"/><rect x="13.5" y="19" width="1" height="3" style="fill:#ffcb52"/><rect x="13.5" y="32" width="1" height="3" style="fill:#ffcb52"/><rect x="6" y="26.5" width="3" height="1" style="fill:#ffcb52"/><rect x="19" y="26.5" width="3" height="1" style="fill:#ffcb52"/><rect x="7.903" y="31.096" width="3.001" height="1" transform="translate(-19.588 15.904) rotate(-45)" style="fill:#ffcb52"/><rect x="17.096" y="21.904" width="3.001" height="1" transform="translate(-10.395 19.711) rotate(-45)" style="fill:#ffcb52"/><rect x="8.904" y="20.903" width="1" height="3.001" transform="translate(-13.088 13.211) rotate(-45)" style="fill:#ffcb52"/><rect x="18.096" y="30.096" width="1" height="3.001" transform="translate(-16.895 22.404) rotate(-45)" style="fill:#ffcb52"/></svg>