<svg xmlns="http://www.w3.org/2000/svg" viewBox="0 0 64 64"><defs><style>.cls-1{fill:#ccc;}.cls-2{fill:#e6e6e6;}.cls-3{fill:#e4202b;}.cls-4{fill:#ffdc32;}.cls-5{fill:#ffc600;}.cls-6{fill:#29abe2;}</style></defs><g id="Layer_8" data-name="Layer 8"><path class="cls-1" d="M52.55,4.39H49.16a.61.61,0,0,0-.56.81c.1,0,0,3.63,0,3.74a.59.59,0,0,0,.6.65h3.29a2.41,2.41,0,0,1,2.4,2.4V53.08a2.41,2.41,0,0,1-2.4,2.4H11.45a2.41,2.41,0,0,1-2.4-2.4V12a2.41,2.41,0,0,1,2.4-2.4h3.31a.6.6,0,0,0,.6-.6c0-.07,0-3.85.05-3.79a.61.61,0,0,0-.56-.81h-3.4A7.61,7.61,0,0,0,3.85,12V53.08a7.61,7.61,0,0,0,7.6,7.6h41.1a7.61,7.61,0,0,0,7.6-7.6V12A7.61,7.61,0,0,0,52.55,4.39Z"/><rect class="cls-2" x="7.85" y="8.39" width="48.29" height="48.29" rx="3.6"/><path class="cls-3" d="M52.54,8.39H11.45A3.61,3.61,0,0,0,7.85,12v4.94a.6.6,0,0,0,.6.6H55.54a.6.6,0,0,0,.6-.6V12A3.61,3.61,0,0,0,52.54,8.39Z"/><path class="cls-2" d="M16.9,3.32A2.29,2.29,0,0,0,14.16,5.5v7c0,2.95,4.91,2.95,4.93,0v-7A2.19,2.19,0,0,0,16.9,3.32Z"/><path class="cls-2" d="M32.28,3.32A2.29,2.29,0,0,0,29.54,5.5v7c0,2.95,4.91,2.95,4.93,0v-7A2.19,2.19,0,0,0,32.28,3.32Z"/><path class="cls-2" d="M47.66,3.32A2.3,2.3,0,0,0,44.91,5.5v7c0,2.95,4.92,2.95,4.94,0v-7A2.19,2.19,0,0,0,47.66,3.32Z"/><path class="cls-4" d="M44.85,38.48c3.66-1.43,3.68-3.32,0-4.75-2.46-1.11-2.31-1-1-3.35,2.07-3.26,1-4.71-2.75-3.74-2.62.52-2.55.58-2.85-2.06-.23-3.81-1.9-4.51-4.38-1.5-1.86,2-1.82,2-3.66,0-2.46-3-4.15-2.33-4.38,1.5-.09.81-.23,2-.53,2.25-1.33.45-5-1.39-5.88.1-1.13,1.31,1.75,4.22,1.71,5.63-.84,1.13-4.85,1.8-4.69,3.54-.16,1.74,3.84,2.42,4.69,3.55.05,1.41-2.84,4.31-1.71,5.62.89,1.49,4.55-.35,5.88.11.84,1.14.22,5.17,1.92,5.56,1.71.61,3.4-3,4.82-3.37,1.36.37,3.23,4,4.82,3.37,1.7-.39,1.09-4.42,1.92-5.56.31-.22,1.52,0,2.32.19,3.72,1,4.83-.47,2.75-3.74C42.52,39.51,42.42,39.57,44.85,38.48Z"/><path class="cls-5" d="M32,27.15a9,9,0,0,0-9,9C23.51,48,40.49,48,41,36.1A9,9,0,0,0,32,27.15Z"/><path class="cls-6" d="M16.74,21.1a.6.6,0,0,0,.6-.6V19a.6.6,0,1,0-1.2,0v1.5A.6.6,0,0,0,16.74,21.1Z"/><path class="cls-6" d="M16.74,26.8a.6.6,0,0,0,.6-.6V24.71a.6.6,0,0,0-1.2,0V26.2A.6.6,0,0,0,16.74,26.8Z"/><path class="cls-6" d="M18.22,21.71a.59.59,0,0,0,.42-.18l1.06-1.05a.61.61,0,0,0,0-.85.59.59,0,0,0-.85,0l-1.06,1.05A.61.61,0,0,0,18.22,21.71Z"/><path class="cls-6" d="M20.32,22H18.83a.6.6,0,0,0,0,1.2h1.49A.6.6,0,0,0,20.32,22Z"/><path class="cls-6" d="M18.64,23.63c-.54-.55-1.41.31-.85.85.27.21,1.11,1.31,1.48,1.23a.6.6,0,0,0,.43-1Z"/><path class="cls-6" d="M15.69,23.63a.61.61,0,0,0-.85,0l-1.05,1.06a.6.6,0,1,0,.84.85l1.06-1.06A.61.61,0,0,0,15.69,23.63Z"/><path class="cls-6" d="M13.16,23.18h1.49a.6.6,0,0,0,0-1.2H13.16A.6.6,0,0,0,13.16,23.18Z"/><path class="cls-6" d="M14.84,21.53a.6.6,0,0,0,.85-.85l-1.06-1.05c-.54-.56-1.4.3-.84.85Z"/><path class="cls-6" d="M15.27,42.93a.6.6,0,0,0-.6.6V45a.6.6,0,0,0,.6.6.6.6,0,0,0,.6-.6V43.53A.6.6,0,0,0,15.27,42.93Z"/><path class="cls-6" d="M15.27,48.38a.6.6,0,0,0-.6.6V50.4a.6.6,0,0,0,.6.6.59.59,0,0,0,.6-.6V49A.6.6,0,0,0,15.27,48.38Z"/><path class="cls-6" d="M16.31,46c.64.63,1.29-.51,1.9-1a.6.6,0,0,0,0-.85.61.61,0,0,0-.85,0C16.87,44.68,15.71,45.28,16.31,46Z"/><path class="cls-6" d="M18.84,46.34H17.35a.6.6,0,0,0,0,1.2h1.49A.6.6,0,0,0,18.84,46.34Z"/><path class="cls-6" d="M17.16,47.92c-.55-.55-1.4.34-.83.87C16.59,49,17.42,50,17.79,50a.6.6,0,0,0,.42-1Z"/><path class="cls-6" d="M13.39,47.92l-1.05,1a.6.6,0,0,0,.42,1c.37.07,1.2-1,1.46-1.17C14.79,48.26,13.94,47.37,13.39,47.92Z"/><path class="cls-6" d="M13.8,46.94a.6.6,0,0,0-.6-.6H11.71a.6.6,0,0,0-.6.6.6.6,0,0,0,.6.6H13.2A.6.6,0,0,0,13.8,46.94Z"/><path class="cls-6" d="M13.17,44.09c-.55-.54-1.4.34-.83.87.27.19,1.09,1.24,1.47,1.18a.61.61,0,0,0,.41-1Z"/><path class="cls-6" d="M49.57,21.09a.6.6,0,0,0,.6-.6V19A.6.6,0,0,0,49,19v1.49A.6.6,0,0,0,49.57,21.09Z"/><path class="cls-6" d="M50.17,26.2V24.71a.6.6,0,0,0-1.2,0V26.2A.6.6,0,0,0,50.17,26.2Z"/><path class="cls-6" d="M51,21.71a.6.6,0,0,0,.43-.18l1.05-1.05a.6.6,0,0,0-.85-.85l-1.05,1.05A.61.61,0,0,0,51,21.71Z"/><path class="cls-6" d="M53.15,22H51.66a.6.6,0,0,0,0,1.2h1.49A.6.6,0,0,0,53.15,22Z"/><path class="cls-6" d="M51.47,23.63c-.54-.55-1.41.31-.85.85.27.21,1.11,1.31,1.48,1.23a.6.6,0,0,0,.42-1Z"/><path class="cls-6" d="M47.67,23.63l-1.06,1.06a.6.6,0,0,0,.43,1c.36.08,1.21-1,1.48-1.23C49.07,23.94,48.21,23.07,47.67,23.63Z"/><path class="cls-6" d="M46,23.18h1.49a.6.6,0,0,0,0-1.2H46A.6.6,0,0,0,46,23.18Z"/><path class="cls-6" d="M47.67,21.53a.6.6,0,0,0,.85-.85l-1.06-1.05c-.54-.56-1.41.3-.85.85Z"/><path class="cls-6" d="M48.35,44.48a.6.6,0,0,0-.6.6v1.49a.6.6,0,0,0,1.2,0V45.08A.6.6,0,0,0,48.35,44.48Z"/><path class="cls-6" d="M48.35,50.19a.6.6,0,0,0-.6.6v1.49a.6.6,0,0,0,1.2,0V50.79A.6.6,0,0,0,48.35,50.19Z"/><path class="cls-6" d="M49.4,47.61a.61.61,0,0,0,.85,0l1-1.06a.59.59,0,0,0,0-.85.61.61,0,0,0-.85,0L49.4,46.76A.59.59,0,0,0,49.4,47.61Z"/><path class="cls-6" d="M51.93,48.06h-1.5a.6.6,0,0,0,0,1.2h1.5A.6.6,0,0,0,51.93,48.06Z"/><path class="cls-6" d="M50.25,49.71c-.54-.56-1.41.31-.85.85.27.2,1.11,1.3,1.48,1.23a.6.6,0,0,0,.42-1Z"/><path class="cls-6" d="M46.45,49.71l-1.06,1.06a.6.6,0,0,0,.43,1c.36.08,1.21-1,1.48-1.23C47.85,50,47,49.15,46.45,49.71Z"/><path class="cls-6" d="M46.86,48.66a.6.6,0,0,0-.6-.6H44.77a.6.6,0,0,0,0,1.2h1.49A.6.6,0,0,0,46.86,48.66Z"/><path class="cls-6" d="M46.24,45.7c-.54-.56-1.41.31-.85.85.27.21,1.11,1.31,1.48,1.23a.6.6,0,0,0,.43-1Z"/><path d="M32,45.06a9,9,0,0,0,9-9c-.47-11.87-17.45-11.87-17.92,0A9,9,0,0,0,32,45.06Zm0-16.71a7.77,7.77,0,0,1,7.76,7.75c-.39,10.28-15.13,10.28-15.52,0A7.77,7.77,0,0,1,32,28.35Z"/><path d="M19.38,26.93c-1.13,1.31,1.75,4.22,1.71,5.63-.84,1.13-4.85,1.8-4.69,3.54-.16,1.74,3.84,2.42,4.69,3.55.05,1.41-2.84,4.31-1.71,5.62.89,1.49,4.55-.35,5.88.11.84,1.14.22,5.17,1.92,5.56,1.71.61,3.4-3,4.82-3.37,1.36.37,3.23,4,4.82,3.37,1.7-.39,1.09-4.42,1.92-5.56,1.33-.46,5,1.38,5.88-.11,1.13-1.31-1.75-4.21-1.71-5.62.84-1.14,4.85-1.8,4.69-3.55.16-1.74-3.84-2.41-4.69-3.54,0-1.41,2.84-4.32,1.71-5.63-.9-1.48-4.55.35-5.88-.1-.3-.22-.44-1.44-.53-2.25-.23-3.81-1.9-4.51-4.38-1.5-.57.62-1.42,1.56-1.83,1.56-1.36-.37-3.23-4-4.82-3.38-1.7.39-1.09,4.42-1.92,5.57C23.93,27.28,20.27,25.44,19.38,26.93ZM26,27.8c1.24-.72.74-4.41,1.58-5.4,1.27.42,3,3.58,4.45,3.44,1.46.14,3.18-3,4.45-3.44.84,1,.33,4.67,1.58,5.4,1.07,1,4.41-.63,5.62-.16.05,1.3-2.47,4-1.89,5.29.29,1.39,4,2.07,4.64,3.17-.63,1.11-4.34,1.78-4.64,3.18-.59,1.31,2,4,1.89,5.29-1.21.46-4.55-1.12-5.62-.16-1.25.72-.74,4.4-1.58,5.39-1.28-.41-3-3.58-4.45-3.43-1.46-.15-3.18,3-4.45,3.43-.85-1-.33-4.67-1.58-5.39-1.41-1-4.28.66-5.62.16-.06-1.3,2.48-4,1.89-5.29-.29-1.4-4-2.07-4.64-3.18,0-.35,1.33-1,2-1.28,3.05-1.24,3.28-2.26,1.59-5-.35-.62-1.08-1.9-.89-2.15s1.65,0,2.35.17C24,28.08,25.24,28.33,26,27.8Z"/><path d="M52.54,4.39h-3A2.4,2.4,0,0,0,47.1,3.32,2.19,2.19,0,0,0,44.91,5.5V8.39H34.47V5.5a2.3,2.3,0,0,0-2.75-2.18A2.19,2.19,0,0,0,29.54,5.5V8.39H19.09V5.5A2.19,2.19,0,0,0,16.9,3.32a2.44,2.44,0,0,0-2.43,1.07h-3A7.61,7.61,0,0,0,3.85,12V53.08a7.61,7.61,0,0,0,7.61,7.6H52.54a7.61,7.61,0,0,0,7.61-7.6V12A7.61,7.61,0,0,0,52.54,4.39ZM46.11,5.5c0-.89.81-1,1.55-1a1,1,0,0,1,1,1c0,1.75,0,5.24,0,7,0,.89-.81,1-1.55,1a1,1,0,0,1-1-1Zm-15.37,0c0-.89.8-1,1.54-1a1,1,0,0,1,1,1V9s0,0,0,0v3.48a1,1,0,0,1-1,1c-.74.06-1.51-.09-1.54-1Zm-1.2,4.09v2.89a2.3,2.3,0,0,0,2.74,2.19,2.19,2.19,0,0,0,2.19-2.19V9.59H44.91v2.89a2.31,2.31,0,0,0,2.75,2.19,2.19,2.19,0,0,0,2.19-2.19V9.59h2.69a2.4,2.4,0,0,1,2.4,2.4v4.34H9.05V12a2.41,2.41,0,0,1,2.4-2.4h2.71v2.89a2.3,2.3,0,0,0,2.74,2.19,2.19,2.19,0,0,0,2.19-2.19V9.59ZM9.05,17.53H54.94V53.08a2.4,2.4,0,0,1-2.4,2.4H11.45a2.41,2.41,0,0,1-2.4-2.4Zm6.31-12c0-.89.8-1,1.54-1a1,1,0,0,1,1,1V9a0,0,0,0,0,0,0v3.47a1,1,0,0,1-1,1c-.74.06-1.51-.09-1.54-1ZM58.94,53.08a6.41,6.41,0,0,1-6.4,6.4H11.46a6.41,6.41,0,0,1-6.4-6.4V12a6.41,6.41,0,0,1,6.4-6.4h2.7v2.8H11.45A3.6,3.6,0,0,0,7.85,12V53.08a3.61,3.61,0,0,0,3.6,3.6H52.54a3.6,3.6,0,0,0,3.6-3.6V16.94s0,0,0,0V12a3.6,3.6,0,0,0-3.6-3.6H49.85V5.59h2.69a6.41,6.41,0,0,1,6.4,6.4Z"/><path d="M16.74,21.1a.6.6,0,0,0,.6-.6V19a.6.6,0,1,0-1.2,0v1.5A.6.6,0,0,0,16.74,21.1Z"/><path d="M16.74,26.8a.6.6,0,0,0,.6-.6V24.71a.6.6,0,0,0-1.2,0V26.2A.6.6,0,0,0,16.74,26.8Z"/><path d="M18.22,21.71a.59.59,0,0,0,.42-.18l1.06-1.05a.61.61,0,0,0,0-.85.59.59,0,0,0-.85,0l-1.06,1.05A.61.61,0,0,0,18.22,21.71Z"/><path d="M18.23,22.58a.6.6,0,0,0,.6.6h1.49a.6.6,0,0,0,0-1.2H18.83A.6.6,0,0,0,18.23,22.58Z"/><path d="M18.85,25.54a.6.6,0,0,0,.85-.85l-1.06-1.06c-.54-.55-1.41.31-.85.85Z"/><path d="M15.69,23.63a.61.61,0,0,0-.85,0l-1.05,1.06a.6.6,0,1,0,.84.85l1.06-1.06A.61.61,0,0,0,15.69,23.63Z"/><path d="M13.16,23.18h1.49a.6.6,0,0,0,0-1.2H13.16A.6.6,0,0,0,13.16,23.18Z"/><path d="M14.84,21.53a.6.6,0,0,0,.85-.85l-1.06-1.05c-.54-.56-1.4.3-.84.85Z"/><path d="M15.27,42.93a.6.6,0,0,0-.6.6V45a.6.6,0,0,0,.6.6.6.6,0,0,0,.6-.6V43.53A.6.6,0,0,0,15.27,42.93Z"/><path d="M15.27,48.38a.6.6,0,0,0-.6.6V50.4a.6.6,0,0,0,.6.6.59.59,0,0,0,.6-.6V49A.6.6,0,0,0,15.27,48.38Z"/><path d="M16.74,46.14a.63.63,0,0,0,.42-.17c.5-.59,1.67-1.19,1.07-1.86s-1.29.51-1.9,1A.61.61,0,0,0,16.74,46.14Z"/><path d="M18.84,46.34H17.35a.6.6,0,0,0,0,1.2h1.49A.6.6,0,0,0,18.84,46.34Z"/><path d="M17.16,47.92c-.55-.55-1.4.34-.83.87C16.59,49,17.42,50,17.79,50a.6.6,0,0,0,.42-1Z"/><path d="M13.39,47.92l-1.05,1a.6.6,0,0,0,.42,1c.37.07,1.2-1,1.46-1.17C14.79,48.26,13.94,47.37,13.39,47.92Z"/><path d="M11.71,47.54H13.2a.6.6,0,0,0,0-1.2H11.71A.6.6,0,0,0,11.71,47.54Z"/><path d="M13.39,46c.55.54,1.4-.34.83-.87l-1.05-1c-.55-.54-1.4.34-.83.87Z"/><path d="M49.57,21.09a.6.6,0,0,0,.6-.6V19A.6.6,0,0,0,49,19v1.49A.6.6,0,0,0,49.57,21.09Z"/><path d="M49.57,26.8a.6.6,0,0,0,.6-.6V24.71a.6.6,0,0,0-1.2,0V26.2A.6.6,0,0,0,49.57,26.8Z"/><path d="M51,21.71a.6.6,0,0,0,.43-.18l1.05-1.05a.6.6,0,0,0-.85-.85l-1.05,1.05A.61.61,0,0,0,51,21.71Z"/><path d="M51.06,22.58a.6.6,0,0,0,.6.6h1.49a.6.6,0,1,0,0-1.2H51.66A.6.6,0,0,0,51.06,22.58Z"/><path d="M51.67,25.54a.6.6,0,0,0,.85-.85l-1.05-1.06c-.54-.55-1.41.31-.85.85Z"/><path d="M48.52,23.63a.61.61,0,0,0-.85,0l-1.06,1.06a.6.6,0,1,0,.85.85l1.06-1.06A.61.61,0,0,0,48.52,23.63Z"/><path d="M46,23.18h1.49a.6.6,0,0,0,0-1.2H46A.6.6,0,0,0,46,23.18Z"/><path d="M47.67,21.53a.6.6,0,0,0,.85-.85l-1.06-1.05c-.54-.56-1.41.3-.85.85Z"/><path d="M47.75,45.08v1.49a.6.6,0,0,0,1.2,0V45.08A.6.6,0,0,0,47.75,45.08Z"/><path d="M48.35,50.19a.6.6,0,0,0-.6.6v1.49a.6.6,0,0,0,1.2,0V50.79A.6.6,0,0,0,48.35,50.19Z"/><path d="M49.82,47.78a.63.63,0,0,0,.43-.17l1-1.06a.59.59,0,0,0,0-.85.61.61,0,0,0-.85,0L49.4,46.76A.6.6,0,0,0,49.82,47.78Z"/><path d="M51.93,48.06h-1.5a.6.6,0,0,0,0,1.2h1.5A.6.6,0,0,0,51.93,48.06Z"/><path d="M50.25,49.71c-.54-.56-1.41.31-.85.85.27.2,1.11,1.3,1.48,1.23a.6.6,0,0,0,.42-1Z"/><path d="M46.45,49.71l-1.06,1.06a.6.6,0,0,0,.43,1c.36.08,1.21-1,1.48-1.23C47.85,50,47,49.15,46.45,49.71Z"/><path d="M46.86,48.66a.6.6,0,0,0-.6-.6H44.77a.6.6,0,0,0,0,1.2h1.49A.6.6,0,0,0,46.86,48.66Z"/><path d="M46.24,45.7c-.54-.56-1.41.31-.85.85.27.21,1.11,1.31,1.48,1.23a.6.6,0,0,0,.43-1Z"/></g></svg>